<svg width="20" height="20" viewBox="0 0 32 32" fill="none" xmlns="http://www.w3.org/2000/svg" class="_liqpay"><path d="M2.41 15.576l22.276-12.74 1.955 3.418L13.001 14l-5.5 1-.5 2.5-2.636 1.495-1.956-3.419z" fill="#FF671F"></path><rect x="7" y="14" width="24" height="17" rx="3" stroke="#43B02A" stroke-width="2"></rect><path d="M7.1 25.497l-5.558-9.909a4 4 0 011.593-5.479l16.109-8.67a4 4 0 015.387 1.569l4.989 8.919A1.95 1.95 0 0129 14.5v0" stroke="#43B02A" stroke-width="2"></path><mask id="a" fill="#fff"><path fill-rule="evenodd" clip-rule="evenodd" d="M25.656 27.855c-.42-.15-.899-.15-1.318 0A2.499 2.499 0 0121 25.5a2.499 2.499 0 013.338-2.355c.419.15.899.15 1.318 0a2.5 2.5 0 110 4.71z"></path></mask><path d="M24.338 27.855l-.673-1.883.673 1.883zm1.318 0l.673-1.883-.673 1.883zm-1.99-1.883a.493.493 0 01-.168.028v4c.527 0 1.037-.091 1.512-.261l-1.345-3.767zm-.168.028a.499.499 0 01-.498-.5h-4a4.5 4.5 0 004.498 4.5v-4zM23 25.5c0-.278.224-.5.498-.5v-4A4.5 4.5 0 0019 25.5h4zm.498-.5c.062 0 .118.01.167.028l1.345-3.767A4.493 4.493 0 0023.498 21v4zm2.83.028a.492.492 0 01.168-.028v-4c-.527 0-1.037.091-1.512.261l1.345 3.767zm.168-.028a.5.5 0 01.498.5h4a4.5 4.5 0 00-4.498-4.5v4zm.498.5a.5.5 0 01-.498.5v4a4.5 4.5 0 004.498-4.5h-4zm-.498.5a.492.492 0 01-.167-.028l-1.345 3.767c.475.17.985.261 1.512.261v-4zm-2.83-.972c.853.305 1.808.305 2.663 0l-1.345-3.767a.08.08 0 01.014-.004h-.003l.015.004-1.345 3.767zm1.344 4.71a.075.075 0 01-.015.005h.003a.077.077 0 01-.014-.004l1.345-3.767a3.991 3.991 0 00-2.664 0l1.345 3.767z" fill="#FF671F" mask="url(#a)"></path><path stroke="#FF671F" stroke-width="2" stroke-linecap="round" d="M11 24h5.385M11 27h7.846"></path></svg>