<svg width="20" height="20" viewBox="0 0 32 32" fill="none" xmlns="http://www.w3.org/2000/svg" class="_checkmo"><path fill-rule="evenodd" clip-rule="evenodd" d="M18.921.887a2 2 0 00-2.885-.549L5.406 8.196a1 1 0 101.188 1.609l10.631-7.858 4.427 7.083a1 1 0 101.696-1.06L21.153 4.46l2.511-1.57 3.871 6.49a1 1 0 001.718-1.025l-3.871-6.49a2 2 0 00-2.778-.67l-2.51 1.569L18.92.887z" fill="#FF671F"></path><path fill-rule="evenodd" clip-rule="evenodd" d="M3 3.998a3 3 0 00-3 3V28a4 4 0 004 4h24a4 4 0 004-4V11.998a4 4 0 00-4-4H3a1 1 0 010-2h3a1 1 0 000-2H3zM2 28V11.998a2 2 0 012-2h24a2 2 0 012 2v3.955h-4.922a3.744 3.744 0 100 7.489H30V28a2 2 0 01-2 2H4a2 2 0 01-2-2zm23.078-10.047H30v3.489h-4.922a1.744 1.744 0 110-3.49z" fill="#43B02A"></path></svg>