<svg width="20" height="20" viewBox="0 0 32 32" fill="none" xmlns="http://www.w3.org/2000/svg" class=""><path d="M9 9V4.667a1 1 0 011-1h3.781m0 0L15.375 9m-1.594-5.333l2.363-2.373A1 1 0 0116.853 1h2.494a1 1 0 01.978.791l.287 1.342m1.138 5.334l-1.138-5.334M26 8.467V4.133a1 1 0 00-1-1h-4.388" stroke="#FF671F" stroke-width="2"></path><path fill-rule="evenodd" clip-rule="evenodd" d="M1 3a1 1 0 000 2h2.09l1.57 16.474a4.99 4.99 0 001.83 3.411A4 4 0 1012.465 26h8.07A4 4 0 1024 24H9.637a3 3 0 01-2.635-1.566l20.368-1.389a2 2 0 001.785-1.44l2.764-9.549A2 2 0 0029.998 7.5H5.338l-.256-2.69A2 2 0 003.09 3H1zm4.528 6.5l1.044 10.959 20.662-1.41L29.998 9.5H5.528zM24 26a2 2 0 100 4 2 2 0 000-4zM9 30a2 2 0 100-4 2 2 0 000 4z" fill="#43B02A"></path></svg>