<svg width="20" height="20" viewBox="0 0 32 32" fill="none" xmlns="http://www.w3.org/2000/svg" class="_credit"><path d="M1.036 13.546c.488-6.684 5.826-12.022 12.51-12.51v12.51H1.036zM1.036 18.454c.488 6.684 5.826 12.023 12.51 12.51v-12.51H1.036zM30.964 18.454c-.487 6.684-5.826 12.023-12.51 12.51v-12.51h12.51z" stroke="#43B02A" stroke-width="2"></path><path d="M17.454 1c0-.552.45-1.004 1-.966 7.237.491 13.02 6.275 13.512 13.511.038.551-.414 1-.966 1H18.454a1 1 0 01-1-1V1z" fill="#FF671F"></path></svg>